<svg width="40" height="40" viewBox="0 0 40 40" fill="none" xmlns="http://www.w3.org/2000/svg">
<path d="M14.0905 6.92831C15.2921 3.41191 20.1507 3.30541 21.5754 6.60882L21.6959 6.93032L23.3175 11.6724C23.6891 12.76 24.2896 13.7552 25.0786 14.5909C25.8675 15.4266 26.8265 16.0834 27.8908 16.517L28.3268 16.6798L33.069 18.2993C36.5854 19.5009 36.6919 24.3596 33.3905 25.7842L33.069 25.9048L28.3268 27.5264C27.2389 27.8977 26.2434 28.4981 25.4073 29.2871C24.5712 30.076 23.9141 31.0351 23.4802 32.0997L23.3175 32.5337L21.6979 37.2778C20.4963 40.7942 15.6377 40.9007 14.215 37.5993L14.0905 37.2778L12.4709 32.5357C12.0995 31.4478 11.4991 30.4522 10.7102 29.6161C9.92124 28.7801 8.96213 28.1229 7.89758 27.6891L7.46356 27.5264L2.72145 25.9068C-0.796961 24.7052 -0.903457 19.8465 2.39995 18.4239L2.72145 18.2993L7.46356 16.6798C8.5511 16.3082 9.54629 15.7076 10.382 14.9187C11.2177 14.1298 11.8746 13.1708 12.3082 12.1065L12.4709 11.6724L14.0905 6.92831ZM17.8942 8.22636L16.2746 12.9685C15.7088 14.6268 14.7883 16.1419 13.5771 17.4082C12.366 18.6745 10.8934 19.6615 9.26194 20.3007L8.7596 20.4835L4.01749 22.1031L8.7596 23.7226C10.4179 24.2885 11.933 25.209 13.1993 26.4201C14.4656 27.6312 15.4527 29.1038 16.0918 30.7353L16.2746 31.2377L17.8942 35.9798L19.5138 31.2377C20.0796 29.5793 21.0001 28.0643 22.2113 26.798C23.4224 25.5317 24.8949 24.5446 26.5265 23.9055L27.0288 23.7246L31.7709 22.1031L27.0288 20.4835C25.3705 19.9177 23.8554 18.9971 22.5891 17.786C21.3228 16.5749 20.3357 15.1023 19.6966 13.4708L19.5158 12.9685L17.8942 8.22636ZM33.9692 3.63068e-07C34.3451 -4.74155e-07 34.7134 0.105448 35.0324 0.304362C35.3514 0.503276 35.6082 0.787678 35.7736 1.12525L35.87 1.36034L36.5733 3.42196L38.6369 4.12524C39.0136 4.25322 39.3439 4.49017 39.5858 4.80604C39.8277 5.12191 39.9704 5.5025 39.9958 5.89955C40.0212 6.29661 39.9282 6.69227 39.7285 7.03639C39.5287 7.3805 39.2314 7.65759 38.874 7.83252L38.6369 7.92897L36.5753 8.63225L35.872 10.6959C35.7438 11.0725 35.5067 11.4026 35.1907 11.6443C34.8747 11.886 34.4941 12.0285 34.097 12.0537C33.7 12.0788 33.3044 11.9856 32.9604 11.7857C32.6164 11.5859 32.3395 11.2884 32.1647 10.931L32.0683 10.6959L31.365 8.63426L29.3014 7.93098C28.9247 7.803 28.5944 7.56605 28.3525 7.25018C28.1106 6.93431 27.9679 6.55372 27.9425 6.15667C27.9171 5.75961 28.0102 5.36395 28.2099 5.01983C28.4096 4.67572 28.7069 4.39863 29.0643 4.2237L29.3014 4.12725L31.363 3.42397L32.0663 1.36034C32.2018 0.963343 32.4581 0.618702 32.7994 0.374745C33.1406 0.130788 33.5497 -0.000251737 33.9692 3.63068e-07Z" fill="black"/>
</svg>
