<svg width="41" height="40" viewBox="0 0 41 40" fill="none" xmlns="http://www.w3.org/2000/svg">
<path fill-rule="evenodd" clip-rule="evenodd" d="M4 20C4 15.7565 5.68571 11.6869 8.68629 8.68629C11.6869 5.68571 15.7565 4 20 4C30.734 4 36.89 12.89 36.012 20.78C35.772 22.952 35.136 24.226 34.572 24.97C34.01 25.716 33.43 26.05 33.106 26.21C31.6 26.964 30.84 26.634 30.54 26.396C30.16 26.096 29.796 25.39 29.972 24.328L29.984 24.264L30.99 14.2C31.0363 13.7427 30.9236 13.2834 30.6709 12.8994C30.4183 12.5154 30.0411 12.2302 29.6028 12.0917C29.1645 11.9532 28.6919 11.9699 28.2645 12.139C27.8371 12.308 27.4809 12.6192 27.256 13.02C26.3185 12.0622 25.1989 11.3016 23.9631 10.783C22.7273 10.2644 21.4002 9.99814 20.06 10C14.558 10 10 14.458 10 20C10 25.548 14.576 30 20.076 30C22.5 30 24.776 29.128 26.55 27.648C26.9 28.368 27.4 29.012 28.056 29.532C29.89 30.984 32.4 31.036 34.896 29.788C35.57 29.452 36.716 28.768 37.764 27.382C38.812 25.994 39.676 24.018 39.988 21.222C41.112 11.108 33.266 0 20 0C8.954 0 0 8.954 0 20C0 31.046 8.954 40 20 40C23.0844 40.0041 26.1276 39.292 28.89 37.92C29.361 37.6816 29.7186 37.2667 29.8849 36.7657C30.0512 36.2647 30.0127 35.7183 29.7778 35.2456C29.5429 34.7728 29.1306 34.4122 28.6309 34.2421C28.1311 34.0721 27.5844 34.1066 27.11 34.338C24.6703 35.5482 21.962 36.1156 19.2417 35.9866C16.5213 35.8575 13.879 35.0362 11.5648 33.6004C9.25062 32.1646 7.34122 30.1619 6.01742 27.7819C4.69362 25.4019 3.99923 22.7234 4 20ZM14 20C14 16.706 16.728 14 20.06 14C23.9 14 26.788 17.534 26.008 21.24C25.426 23.996 22.93 26 20.076 26C16.736 26 14 23.29 14 20Z" fill="black"/>
</svg>
