<svg width="36" height="36" viewBox="0 0 36 36" fill="none" xmlns="http://www.w3.org/2000/svg">
<path fill-rule="evenodd" clip-rule="evenodd" d="M26 0C26.5304 0 27.0391 0.210714 27.4142 0.585786C27.7893 0.960859 28 1.46957 28 2V4H32C33.0609 4 34.0783 4.42143 34.8284 5.17157C35.5786 5.92172 36 6.93913 36 8V32C36 33.0609 35.5786 34.0783 34.8284 34.8284C34.0783 35.5786 33.0609 36 32 36H4C2.93913 36 1.92172 35.5786 1.17157 34.8284C0.421427 34.0783 0 33.0609 0 32V8C0 6.93913 0.421427 5.92172 1.17157 5.17157C1.92172 4.42143 2.93913 4 4 4H8V2C8 1.46957 8.21071 0.960859 8.58579 0.585786C8.96086 0.210714 9.46957 0 10 0C10.5304 0 11.0391 0.210714 11.4142 0.585786C11.7893 0.960859 12 1.46957 12 2V4H24V2C24 1.46957 24.2107 0.960859 24.5858 0.585786C24.9609 0.210714 25.4696 0 26 0ZM10 8H4V12H32V8H26H10ZM4 16V32H32V16H4ZM8 20C8 19.4696 8.21071 18.9609 8.58579 18.5858C8.96086 18.2107 9.46957 18 10 18H10.02C10.5504 18 11.0591 18.2107 11.4342 18.5858C11.8093 18.9609 12.02 19.4696 12.02 20C12.02 20.5304 11.8093 21.0391 11.4342 21.4142C11.0591 21.7893 10.5504 22 10.02 22H10C9.46957 22 8.96086 21.7893 8.58579 21.4142C8.21071 21.0391 8 20.5304 8 20ZM10 24C9.46957 24 8.96086 24.2107 8.58579 24.5858C8.21071 24.9609 8 25.4696 8 26C8 26.5304 8.21071 27.0391 8.58579 27.4142C8.96086 27.7893 9.46957 28 10 28H10.02C10.5504 28 11.0591 27.7893 11.4342 27.4142C11.8093 27.0391 12.02 26.5304 12.02 26C12.02 25.4696 11.8093 24.9609 11.4342 24.5858C11.0591 24.2107 10.5504 24 10.02 24H10ZM16 20C16 19.4696 16.2107 18.9609 16.5858 18.5858C16.9609 18.2107 17.4696 18 18 18H18.02C18.5504 18 19.0591 18.2107 19.4342 18.5858C19.8093 18.9609 20.02 19.4696 20.02 20C20.02 20.5304 19.8093 21.0391 19.4342 21.4142C19.0591 21.7893 18.5504 22 18.02 22H18C17.4696 22 16.9609 21.7893 16.5858 21.4142C16.2107 21.0391 16 20.5304 16 20ZM18 24C17.4696 24 16.9609 24.2107 16.5858 24.5858C16.2107 24.9609 16 25.4696 16 26C16 26.5304 16.2107 27.0391 16.5858 27.4142C16.9609 27.7893 17.4696 28 18 28H18.02C18.5504 28 19.0591 27.7893 19.4342 27.4142C19.8093 27.0391 20.02 26.5304 20.02 26C20.02 25.4696 19.8093 24.9609 19.4342 24.5858C19.0591 24.2107 18.5504 24 18.02 24H18ZM24 20C24 19.4696 24.2107 18.9609 24.5858 18.5858C24.9609 18.2107 25.4696 18 26 18H26.02C26.5504 18 27.0591 18.2107 27.4342 18.5858C27.8093 18.9609 28.02 19.4696 28.02 20C28.02 20.5304 27.8093 21.0391 27.4342 21.4142C27.0591 21.7893 26.5504 22 26.02 22H26C25.4696 22 24.9609 21.7893 24.5858 21.4142C24.2107 21.0391 24 20.5304 24 20ZM26 24C25.4696 24 24.9609 24.2107 24.5858 24.5858C24.2107 24.9609 24 25.4696 24 26C24 26.5304 24.2107 27.0391 24.5858 27.4142C24.9609 27.7893 25.4696 28 26 28H26.02C26.5504 28 27.0591 27.7893 27.4342 27.4142C27.8093 27.0391 28.02 26.5304 28.02 26C28.02 25.4696 27.8093 24.9609 27.4342 24.5858C27.0591 24.2107 26.5504 24 26.02 24H26Z" fill="black"/>
</svg>
