<svg width="43" height="24" viewBox="0 0 43 24" fill="none" xmlns="http://www.w3.org/2000/svg">
<path d="M0.591568 12.0009C0.938886 11.6536 1.40099 11.445 1.89118 11.4142C2.38137 11.3833 2.86596 11.5324 3.25405 11.8335L3.44365 12.0009L11.9999 20.5592C12.3616 20.9221 12.5717 21.4092 12.5873 21.9214C12.6029 22.4336 12.423 22.9326 12.0841 23.317C11.7452 23.7014 11.2726 23.9423 10.7625 23.9909C10.2523 24.0395 9.74282 23.8921 9.33741 23.5787L9.14781 23.4112L0.591568 14.855C0.404032 14.6677 0.255258 14.4452 0.153752 14.2003C0.0522464 13.9555 0 13.693 0 13.4279C0 13.1629 0.0522464 12.9004 0.153752 12.6555C0.255258 12.4107 0.404032 12.1882 0.591568 12.0009ZM42.0536 0.592576C42.4009 0.939895 42.6096 1.402 42.6404 1.89219C42.6712 2.38238 42.5221 2.86697 42.2211 3.25506L42.0536 3.44466L22.2283 23.268C21.844 23.6528 21.3317 23.8831 20.7888 23.9151C20.2459 23.947 19.7102 23.7785 19.2834 23.4415L19.0898 23.27L10.6767 14.855C10.3111 14.4929 10.0978 14.0047 10.0803 13.4904C10.0629 12.9761 10.2426 12.4746 10.5829 12.0885C10.9231 11.7024 11.398 11.4609 11.9104 11.4135C12.4228 11.3661 12.9339 11.5164 13.3392 11.8335L13.5288 12.0009L20.659 19.1331L39.2016 0.592576C39.5798 0.214441 40.0928 0.00201688 40.6276 0.00201688C41.1624 0.00201688 41.6754 0.214441 42.0536 0.592576ZM31.9685 0.592576C32.3158 0.939895 32.5244 1.402 32.5552 1.89219C32.586 2.38238 32.4369 2.86697 32.1359 3.25506L31.9685 3.44466L21.9842 13.429C21.6212 13.7907 21.1341 14.0007 20.6219 14.0164C20.1097 14.032 19.6107 13.8521 19.2263 13.5132C18.842 13.1742 18.601 12.7017 18.5524 12.1916C18.5038 11.6814 18.6512 11.1719 18.9647 10.7665L19.1321 10.5749L29.1164 0.590559C29.4947 0.212425 30.0076 0 30.5424 0C31.0773 0 31.5902 0.214441 31.9685 0.592576Z" fill="black"/>
</svg>
