<svg width="42" height="36" viewBox="0 0 42 36" fill="none" xmlns="http://www.w3.org/2000/svg">
<path d="M35.6405 9.32089e-09C37.171 -8.52434e-05 38.6436 0.58465 39.7571 1.63457C40.8706 2.68448 41.5408 4.12021 41.6305 5.648L41.6405 6V30C41.6406 31.5304 41.0559 33.003 40.006 34.1165C38.9561 35.23 37.5203 35.9002 35.9925 35.99L35.6405 36H13.8565C12.9043 35.9998 11.9659 35.7729 11.1187 35.3382C10.2715 34.9035 9.53999 34.2734 8.98454 33.5L8.76854 33.18L0.608542 20.12C0.242689 19.535 0.0343967 18.8652 0.00390743 18.1759C-0.0265819 17.4866 0.121768 16.8011 0.434542 16.186L0.606542 15.88L8.76854 2.82C9.2732 2.01239 9.96285 1.3365 10.7805 0.848227C11.5981 0.35995 12.5202 0.0733082 13.4705 0.0120001L13.8565 9.32089e-09H35.6405ZM35.6405 4H13.8565C13.5608 4.0001 13.2687 4.0658 13.0013 4.19238C12.734 4.31896 12.4981 4.50326 12.3105 4.732L12.1605 4.94L4.00054 18L12.1605 31.06C12.3173 31.3109 12.5277 31.524 12.7767 31.6838C13.0258 31.8435 13.3071 31.9461 13.6005 31.984L13.8565 32H35.6405C36.1304 31.9999 36.6032 31.8201 36.9693 31.4946C37.3354 31.1691 37.5692 30.7205 37.6265 30.234L37.6405 30V6C37.6405 5.51013 37.4606 5.03733 37.1351 4.67126C36.8096 4.30519 36.361 4.07131 35.8745 4.014L35.6405 4ZM19.3985 10.928L23.6385 15.172L27.8825 10.928C28.0684 10.7423 28.2889 10.595 28.5317 10.4946C28.7744 10.3942 29.0346 10.3425 29.2973 10.3426C29.5599 10.3427 29.8201 10.3945 30.0627 10.4951C30.3054 10.5958 30.5259 10.7432 30.7115 10.929C30.8972 11.1148 31.0445 11.3354 31.1449 11.5781C31.2454 11.8209 31.297 12.081 31.2969 12.3437C31.2969 12.6064 31.245 12.8665 31.1444 13.1092C31.0438 13.3518 30.8964 13.5723 30.7105 13.758L26.4705 18L30.7105 22.242C31.0858 22.617 31.2968 23.1258 31.2969 23.6563C31.2971 24.1868 31.0866 24.6957 30.7115 25.071C30.3365 25.4463 29.8278 25.6572 29.2973 25.6574C28.7667 25.6576 28.2578 25.447 27.8825 25.072L23.6405 20.828L19.3985 25.072C19.0233 25.4473 18.5143 25.6581 17.9835 25.6581C17.4528 25.6581 16.9438 25.4473 16.5685 25.072C16.1933 24.6967 15.9824 24.1877 15.9824 23.657C15.9824 23.1263 16.1933 22.6173 16.5685 22.242L20.8125 18L16.5685 13.758C16.1933 13.3827 15.9824 12.8737 15.9824 12.343C15.9824 11.8123 16.1933 11.3033 16.5685 10.928C16.9438 10.5527 17.4528 10.3419 17.9835 10.3419C18.5143 10.3419 19.0233 10.5527 19.3985 10.928Z" fill="black"/>
</svg>
