<svg width="36" height="40" viewBox="0 0 36 40" fill="none" xmlns="http://www.w3.org/2000/svg">
<path d="M22.56 1.16038e-07C23.3995 0.00021772 24.2177 0.264571 24.8986 0.755615C25.5795 1.24666 26.0887 1.9395 26.354 2.736L27.44 6H34C34.5304 6 35.0391 6.21071 35.4142 6.58579C35.7893 6.96086 36 7.46957 36 8C36 8.53043 35.7893 9.03914 35.4142 9.41421C35.0391 9.78929 34.5304 10 34 10L33.994 10.142L32.26 34.428C32.1518 35.9412 31.4743 37.3573 30.3641 38.3911C29.2538 39.425 27.7931 39.9998 26.276 40H9.724C8.20691 39.9998 6.74622 39.425 5.63593 38.3911C4.52565 37.3573 3.84822 35.9412 3.74 34.428L2.006 10.14C2.00238 10.0934 2.00038 10.0467 2 10C1.46957 10 0.960859 9.78929 0.585786 9.41421C0.210714 9.03914 0 8.53043 0 8C0 7.46957 0.210714 6.96086 0.585786 6.58579C0.960859 6.21071 1.46957 6 2 6H8.56L9.646 2.736C9.9114 1.93918 10.4209 1.2461 11.1022 0.75503C11.7835 0.263957 12.6021 -0.000202122 13.442 1.16038e-07H22.56ZM29.994 10H6.006L7.73 34.142C7.7659 34.6464 7.99155 35.1185 8.36152 35.4632C8.73149 35.808 9.21831 35.9998 9.724 36H26.276C26.7817 35.9998 27.2685 35.808 27.6385 35.4632C28.0084 35.1185 28.2341 34.6464 28.27 34.142L29.994 10ZM14 16C14.4899 16.0001 14.9627 16.1799 15.3287 16.5054C15.6948 16.8309 15.9287 17.2795 15.986 17.766L16 18V28C15.9994 28.5098 15.8042 29.0001 15.4543 29.3707C15.1044 29.7414 14.6261 29.9645 14.1172 29.9943C13.6083 30.0242 13.1072 29.8587 12.7163 29.5315C12.3254 29.2043 12.0742 28.7402 12.014 28.234L12 28V18C12 17.4696 12.2107 16.9609 12.5858 16.5858C12.9609 16.2107 13.4696 16 14 16ZM22 16C22.5304 16 23.0391 16.2107 23.4142 16.5858C23.7893 16.9609 24 17.4696 24 18V28C24 28.5304 23.7893 29.0391 23.4142 29.4142C23.0391 29.7893 22.5304 30 22 30C21.4696 30 20.9609 29.7893 20.5858 29.4142C20.2107 29.0391 20 28.5304 20 28V18C20 17.4696 20.2107 16.9609 20.5858 16.5858C20.9609 16.2107 21.4696 16 22 16ZM22.56 4H13.44L12.774 6H23.226L22.56 4Z" fill="black"/>
</svg>
