<svg width="36" height="20" viewBox="0 0 36 20" fill="none" xmlns="http://www.w3.org/2000/svg">
<path d="M0.103503 2.63517C0.0184835 2.38127 -0.0146891 2.11288 0.00595177 1.84592C0.0265927 1.57895 0.100627 1.31885 0.223665 1.08104C0.346703 0.843219 0.516239 0.632528 0.722222 0.461455C0.928205 0.290381 1.16644 0.162408 1.4228 0.085124C1.67917 0.00783988 1.94844 -0.0171817 2.21465 0.0115415C2.48087 0.0402648 2.73861 0.122148 2.97258 0.252338C3.20656 0.382528 3.41202 0.558374 3.57677 0.769447C3.74152 0.980521 3.86221 1.22253 3.93169 1.48111C8.10389 15.4538 27.8969 15.4558 32.0731 1.48912C32.1479 1.23723 32.2717 1.00255 32.4372 0.798482C32.6028 0.594415 32.8069 0.424954 33.0379 0.299774C33.269 0.174595 33.5224 0.0961488 33.7838 0.0689145C34.0451 0.0416803 34.3093 0.0661911 34.5612 0.141048C34.8131 0.215905 35.0478 0.339644 35.2518 0.505196C35.4559 0.670748 35.6253 0.874873 35.7505 1.10592C35.8757 1.33696 35.9542 1.5904 35.9814 1.85176C36.0086 2.11312 35.9841 2.37728 35.9093 2.62917C35.1815 5.13167 33.9473 7.4579 32.2831 9.4635L34.8332 12.0156C35.1975 12.3929 35.3991 12.8981 35.3946 13.4225C35.39 13.9469 35.1797 14.4486 34.8088 14.8194C34.438 15.1902 33.9364 15.4006 33.4119 15.4051C32.8875 15.4097 32.3823 15.2081 32.0051 14.8438L29.3829 12.2216C27.9678 13.2887 26.4046 14.1438 24.7427 14.7598L25.4567 17.4299C25.5329 17.686 25.557 17.9548 25.5276 18.2204C25.4981 18.4859 25.4158 18.7429 25.2854 18.9761C25.155 19.2094 24.9792 19.4141 24.7684 19.5782C24.5575 19.7424 24.3159 19.8626 24.0578 19.9319C23.7998 20.0011 23.5304 20.0179 23.2658 19.9813C23.0011 19.9447 22.7464 19.8555 22.5168 19.7188C22.2872 19.5822 22.0873 19.4009 21.9289 19.1857C21.7705 18.9705 21.6568 18.7258 21.5946 18.4659L20.8665 15.7518C18.9724 16.0318 17.0363 16.0318 15.1422 15.7518L14.4142 18.4659C14.352 18.7258 14.2383 18.9705 14.0799 19.1857C13.9215 19.4009 13.7216 19.5822 13.492 19.7188C13.2624 19.8555 13.0077 19.9447 12.743 19.9813C12.4783 20.0179 12.209 20.0011 11.9509 19.9319C11.6928 19.8626 11.4512 19.7424 11.2404 19.5782C11.0296 19.4141 10.8538 19.2094 10.7234 18.9761C10.593 18.7429 10.5106 18.4859 10.4812 18.2204C10.4518 17.9548 10.4758 17.686 10.552 17.4299L11.266 14.7598C9.60407 14.1431 8.04089 13.2874 6.62582 12.2196L4.00569 14.8438C3.63066 15.2193 3.12179 15.4305 2.59104 15.4309C2.06028 15.4313 1.55112 15.2208 1.17556 14.8458C0.79999 14.4707 0.588789 13.9619 0.588414 13.4311C0.588039 12.9004 0.798521 12.3912 1.17356 12.0156L3.72368 9.46551C2.1556 7.59341 0.903542 5.3173 0.0995027 2.63717L0.103503 2.63517Z" fill="black"/>
</svg>
