<svg width="16" height="27" viewBox="0 0 16 27" fill="none" xmlns="http://www.w3.org/2000/svg">
<path fill-rule="evenodd" clip-rule="evenodd" d="M0.593755 14.9587C0.213574 14.5784 0 14.0627 0 13.525C0 12.9872 0.213574 12.4715 0.593755 12.0912L12.0658 0.619108C12.2529 0.425419 12.4767 0.270925 12.7241 0.164643C12.9715 0.0583599 13.2376 0.00241645 13.5069 7.65679e-05C13.7762 -0.00226331 14.0432 0.0490477 14.2924 0.151015C14.5417 0.252982 14.7681 0.403563 14.9585 0.593972C15.1489 0.784381 15.2995 1.0108 15.4015 1.26003C15.5034 1.50926 15.5547 1.7763 15.5524 2.04557C15.5501 2.31484 15.4941 2.58094 15.3878 2.82836C15.2815 3.07578 15.127 3.29955 14.9334 3.48662L4.89503 13.525L14.9334 23.5633C15.3028 23.9458 15.5072 24.458 15.5026 24.9897C15.4979 25.5215 15.2847 26.0301 14.9087 26.4061C14.5327 26.7821 14.024 26.9954 13.4923 27C12.9606 27.0046 12.4483 26.8002 12.0658 26.4308L0.593755 14.9587Z" fill="black"/>
</svg>
