<svg width="39" height="39" viewBox="0 0 39 39" fill="none" xmlns="http://www.w3.org/2000/svg">
<path d="M15.909 15.9099C17.7526 14.0664 20.2342 13.002 22.8406 12.937C25.4469 12.8719 27.9786 13.8111 29.9118 15.5603L30.2797 15.9099L36.0272 21.6594C37.899 23.5345 38.9644 26.0667 38.9964 28.716C39.0283 31.3654 38.0241 33.9224 36.198 35.8421C34.3718 37.7619 31.8681 38.8924 29.2204 38.9928C26.5728 39.0932 23.9906 38.1555 22.0243 36.3796L21.6585 36.03L17.3459 31.7174C16.9814 31.3517 16.7698 30.8609 16.754 30.3448C16.7383 29.8287 16.9195 29.3259 17.261 28.9386C17.6025 28.5513 18.0787 28.3086 18.5927 28.2596C19.1067 28.2106 19.6201 28.3591 20.0286 28.675L20.2196 28.8437L24.5322 33.1563C25.6502 34.2808 27.1622 34.9255 28.7476 34.9537C30.3329 34.9819 31.8669 34.3913 33.0241 33.3074C34.1814 32.2234 34.8708 30.7312 34.9461 29.1474C35.0215 27.5636 34.4769 26.0127 33.4278 24.8237L33.1534 24.5331L27.406 18.7856C26.8398 18.2194 26.1676 17.7702 25.4278 17.4637C24.688 17.1572 23.8951 16.9995 23.0944 16.9995C22.2936 16.9995 21.5007 17.1572 20.7609 17.4637C20.0211 17.7702 19.3489 18.2194 18.7828 18.7856C18.4014 19.1667 17.8843 19.3807 17.3452 19.3805C16.8061 19.3803 16.2891 19.166 15.908 18.7846C15.5269 18.4033 15.3129 17.8861 15.3131 17.347C15.3133 16.8079 15.5277 16.2909 15.909 15.9099ZM2.97521 2.97605C4.81881 1.13258 7.30043 0.0682321 9.90677 0.00316816C12.5131 -0.0618957 15.0448 0.877298 16.978 2.62648L17.3459 2.97605L21.6565 7.2907C22.021 7.65644 22.2326 8.1472 22.2484 8.66331C22.2641 9.17943 22.0828 9.68219 21.7413 10.0695C21.3998 10.4568 20.9237 10.6996 20.4097 10.7485C19.8957 10.7975 19.3823 10.649 18.9738 10.3331L18.7828 10.1644L14.4722 5.85384C13.3523 4.74125 11.8445 4.10639 10.2661 4.08281C8.68767 4.05922 7.16163 4.64877 6.00901 5.7274C4.85639 6.80604 4.16706 8.28968 4.08604 9.8662C4.00501 11.4427 4.53861 12.9892 5.57457 14.1803L5.84894 14.473L11.5984 20.2225C12.7418 21.3655 14.2923 22.0076 15.909 22.0076C17.5257 22.0076 19.0763 21.3655 20.2196 20.2225C20.4083 20.0337 20.6323 19.8839 20.8789 19.7816C21.1255 19.6794 21.3898 19.6267 21.6568 19.6266C21.9237 19.6265 22.1881 19.679 22.4347 19.7811C22.6814 19.8831 22.9055 20.0328 23.0944 20.2215C23.2832 20.4102 23.433 20.6342 23.5352 20.8808C23.6375 21.1274 23.6902 21.3917 23.6903 21.6586C23.6903 21.9256 23.6379 22.1899 23.5358 22.4366C23.4337 22.6832 23.2841 22.9074 23.0954 23.0962C21.2518 24.9397 18.7702 26.004 16.1638 26.0691C13.5575 26.1342 11.0258 25.195 9.09255 23.4458L8.72267 23.0962L2.97521 17.3467C1.07018 15.4411 0 12.8569 0 10.1624C0 7.46788 1.07018 4.88165 2.97521 2.97605Z" fill="black"/>
</svg>
