<svg width="36" height="38" viewBox="0 0 36 38" fill="none" xmlns="http://www.w3.org/2000/svg">
<path d="M34 12.9754C34.5304 12.9754 35.0391 13.1861 35.4142 13.5612C35.7893 13.9363 36 14.445 36 14.9754V16.9754C36 21.2189 34.3143 25.2886 31.3137 28.2891C28.3131 31.2897 24.2435 32.9754 20 32.9754H12.828L14.414 34.5614C14.7783 34.9386 14.9799 35.4438 14.9753 35.9682C14.9708 36.4926 14.7605 36.9942 14.3896 37.3651C14.0188 37.7359 13.5172 37.9462 12.9928 37.9508C12.4684 37.9553 11.9632 37.7537 11.586 37.3894L6.594 32.3974C6.28409 32.0922 6.08252 31.6939 6.02 31.2634L6 30.9574C6.00327 30.4896 6.17107 30.0379 6.474 29.6814L6.586 29.5614L11.586 24.5614C11.9632 24.1971 12.4684 23.9955 12.9928 24.0001C13.5172 24.0046 14.0188 24.215 14.3896 24.5858C14.7605 24.9566 14.9708 25.4582 14.9753 25.9826C14.9799 26.507 14.7783 27.0122 14.414 27.3894L12.828 28.9754H20C23.1826 28.9754 26.2348 27.7111 28.4853 25.4607C30.7357 23.2103 32 20.158 32 16.9754V14.9754C32 14.445 32.2107 13.9363 32.5858 13.5612C32.9609 13.1861 33.4696 12.9754 34 12.9754ZM24.414 0.561424L29.414 5.56142C29.7889 5.93648 29.9996 6.4451 29.9996 6.97542C29.9996 7.50575 29.7889 8.01437 29.414 8.38942L24.414 13.3894C24.2295 13.5804 24.0088 13.7328 23.7648 13.8376C23.5208 13.9424 23.2584 13.9976 22.9928 13.9999C22.7272 14.0022 22.4639 13.9516 22.2181 13.8511C21.9723 13.7505 21.749 13.602 21.5612 13.4142C21.3734 13.2264 21.2249 13.0031 21.1244 12.7573C21.0238 12.5115 20.9732 12.2482 20.9755 11.9826C20.9778 11.7171 21.033 11.4546 21.1378 11.2106C21.2426 10.9666 21.395 10.7459 21.586 10.5614L23.172 8.97542H16C12.8174 8.97542 9.76516 10.2397 7.51472 12.4901C5.26428 14.7406 4 17.7928 4 20.9754V22.9754C4 23.5059 3.78929 24.0146 3.41421 24.3896C3.03914 24.7647 2.53043 24.9754 2 24.9754C1.46957 24.9754 0.960859 24.7647 0.585786 24.3896C0.210714 24.0146 0 23.5059 0 22.9754V20.9754C0 16.732 1.68571 12.6623 4.68629 9.66172C7.68687 6.66113 11.7565 4.97542 16 4.97542H23.172L21.586 3.38942C21.2217 3.01222 21.0201 2.50701 21.0247 1.98262C21.0292 1.45823 21.2395 0.956603 21.6104 0.585787C21.9812 0.21497 22.4828 0.00463244 23.0072 7.56053e-05C23.5316 -0.00448123 24.0368 0.197107 24.414 0.561424Z" fill="black"/>
</svg>
