<svg width="36" height="36" viewBox="0 0 36 36" fill="none" xmlns="http://www.w3.org/2000/svg">
<path d="M26 0C26.5304 0 27.0391 0.210714 27.4142 0.585786C27.7893 0.960859 28 1.46957 28 2V4H32C33.0609 4 34.0783 4.42143 34.8284 5.17157C35.5786 5.92172 36 6.93913 36 8V32C36 33.0609 35.5786 34.0783 34.8284 34.8284C34.0783 35.5786 33.0609 36 32 36H4C2.93913 36 1.92172 35.5786 1.17157 34.8284C0.421427 34.0783 0 33.0609 0 32V8C0 6.93913 0.421427 5.92172 1.17157 5.17157C1.92172 4.42143 2.93913 4 4 4H8V2C8 1.46957 8.21071 0.960859 8.58579 0.585786C8.96086 0.210714 9.46957 0 10 0C10.5304 0 11.0391 0.210714 11.4142 0.585786C11.7893 0.960859 12 1.46957 12 2V4H24V2C24 1.46957 24.2107 0.960859 24.5858 0.585786C24.9609 0.210714 25.4696 0 26 0ZM32 8H4V32H32V8ZM23.648 12.758C24.0252 12.3937 24.5304 12.1921 25.0548 12.1967C25.5792 12.2012 26.0808 12.4115 26.4516 12.7824C26.8225 13.1532 27.0328 13.6548 27.0373 14.1792C27.0419 14.7036 26.8403 15.2088 26.476 15.586L16.592 25.472C16.4044 25.6598 16.1816 25.8087 15.9364 25.9104C15.6912 26.012 15.4284 26.0643 15.163 26.0643C14.8976 26.0643 14.6348 26.012 14.3896 25.9104C14.1444 25.8087 13.9216 25.6598 13.734 25.472L9.506 21.24C9.14168 20.8628 8.94009 20.3576 8.94465 19.8332C8.94921 19.3088 9.15955 18.8072 9.53036 18.4364C9.90118 18.0655 10.4028 17.8552 10.9272 17.8507C11.4516 17.8461 11.9568 18.0477 12.334 18.412L15.164 21.24L23.648 12.758Z" fill="black"/>
</svg>
